<svg width="72" height="474" viewBox="0 0 72 474" fill="none" xmlns="http://www.w3.org/2000/svg">
<path d="M6.49373 389.95C6.49374 407.882 21.0326 423.439 38.8203 423.439C58.1106 423.439 71.1469 410.297 71.1469 391.424C71.1469 383.645 68.4665 376.767 64.3242 372.878L70.0097 372.878L70.0097 356.42L38.7797 356.42C19.4893 356.42 6.45312 370.462 6.45312 389.909L6.49373 389.95ZM56.8517 389.95C56.8517 399.98 48.7701 408.127 38.8203 408.127C28.8705 408.127 20.7889 399.98 20.7889 389.95C20.7889 379.92 28.8705 371.772 38.8203 371.772C48.7701 371.772 56.8517 379.92 56.8517 389.95Z" fill="black"/>
<path d="M6.98047 140.542C6.98047 158.228 21.3162 173.54 38.8603 173.54C57.8664 173.54 70.7401 159.702 70.7401 140.542C70.7401 122.856 56.4044 107.544 38.8603 107.544C19.8542 107.544 6.98047 121.382 6.98047 140.542ZM56.8917 140.542C56.8917 150.573 48.8101 158.72 38.8603 158.72C28.9105 158.72 20.8289 150.573 20.8289 140.542C20.8289 130.512 28.9105 122.365 38.8603 122.365C48.8101 122.365 56.8917 130.512 56.8917 140.542Z" fill="black"/>
<path d="M7.0625 319.164C7.0625 303.812 16.8092 292.635 31.5917 292.635L70.6191 292.635L70.6191 309.42L31.1044 309.42C25.6218 309.42 21.6013 313.637 21.6013 319C21.6013 324.364 25.6625 328.703 31.1044 328.703L70.6191 328.703L70.6191 345.489L30.9825 345.489C16.6874 345.489 7.0625 334.435 7.0625 319.082L7.0625 319.164Z" fill="black"/>
<path d="M8.07812 78.436C9.98685 89.4898 17.175 95.6309 29.6833 95.6309L70.5382 95.6309L70.5382 78.7635" fill="black"/>
<path d="M6.93945 30.4131C6.93945 14.9786 16.7268 3.80194 31.5499 3.80194L70.7397 3.80194L70.7397 20.6693L31.0625 20.6693C25.58 20.6693 21.5189 24.8861 21.5189 30.2902C21.5189 35.6944 25.58 40.034 31.0625 40.034L70.7397 40.034L70.7397 56.9014L30.9407 56.9014C16.6049 56.9014 6.93945 45.8066 6.93945 30.4131Z" fill="black"/>
<path d="M22.2501 65.7036C22.2501 61.6111 18.9591 58.2934 14.8995 58.2934C10.8398 58.2934 7.54883 61.6111 7.54883 65.7036C7.54883 69.7961 10.8398 73.1138 14.8995 73.1138C18.9591 73.1138 22.2501 69.7961 22.2501 65.7036Z" fill="black"/>
<path d="M66.598 474L53.44 470.315C56.0797 466.795 57.826 462.66 57.826 458.074C57.826 450.992 53.6024 446.857 44.8304 446.857L3.08201 446.857L0.726561 431.545L46.8609 431.545C61.1967 431.545 71.9993 440.388 71.9993 455.864C71.9993 462.496 69.9687 468.842 66.598 474Z" fill="black"/>
<path d="M2.22852 240.928L2.22851 216.568C2.22851 195.934 16.9298 180.418 36.3014 180.418C55.6729 180.418 70.496 195.934 70.496 216.568L70.496 240.928L2.22852 240.928ZM58.0284 217.223C58.0284 204.327 48.8096 194.788 36.3014 194.788C23.7931 194.788 14.5743 204.327 14.5743 217.223L14.5743 226.517L57.9878 226.517L57.9878 217.223L58.0284 217.223Z" fill="black"/>
</svg>
